<svg width="32" height="32" viewBox="0 0 32 32" fill="none" xmlns="http://www.w3.org/2000/svg">
<path d="M12 4H5.33333C4.59695 4 4 4.59695 4 5.33333V14.6667C4 15.403 4.59695 16 5.33333 16H12C12.7364 16 13.3333 15.403 13.3333 14.6667V5.33333C13.3333 4.59695 12.7364 4 12 4Z" stroke="#FF4E8A" stroke-width="2" stroke-linecap="round" stroke-linejoin="round"/>
<path d="M26.6667 4H20.0001C19.2637 4 18.6667 4.59695 18.6667 5.33333V9.33333C18.6667 10.0697 19.2637 10.6667 20.0001 10.6667H26.6667C27.4031 10.6667 28.0001 10.0697 28.0001 9.33333V5.33333C28.0001 4.59695 27.4031 4 26.6667 4Z" stroke="#FF4E8A" stroke-width="2" stroke-linecap="round" stroke-linejoin="round"/>
<path d="M26.6667 16H20.0001C19.2637 16 18.6667 16.597 18.6667 17.3333V26.6667C18.6667 27.403 19.2637 28 20.0001 28H26.6667C27.4031 28 28.0001 27.403 28.0001 26.6667V17.3333C28.0001 16.597 27.4031 16 26.6667 16Z" stroke="#FF4E8A" stroke-width="2" stroke-linecap="round" stroke-linejoin="round"/>
<path d="M12 21.3334H5.33333C4.59695 21.3334 4 21.9303 4 22.6667V26.6667C4 27.4031 4.59695 28 5.33333 28H12C12.7364 28 13.3333 27.4031 13.3333 26.6667V22.6667C13.3333 21.9303 12.7364 21.3334 12 21.3334Z" stroke="#FF4E8A" stroke-width="2" stroke-linecap="round" stroke-linejoin="round"/>
</svg>
