<svg width="32" height="32" viewBox="0 0 32 32" fill="none" xmlns="http://www.w3.org/2000/svg">
<path d="M15.9998 29.3333C23.3636 29.3333 29.3332 23.3638 29.3332 16C29.3332 8.63616 23.3636 2.66663 15.9998 2.66663C8.63604 2.66663 2.6665 8.63616 2.6665 16C2.6665 23.3638 8.63604 29.3333 15.9998 29.3333Z" stroke="#FF4E8A" stroke-width="2" stroke-linecap="round" stroke-linejoin="round"/>
<path d="M6.57324 6.57336L12.2266 12.2267" stroke="#FF4E8A" stroke-width="2" stroke-linecap="round" stroke-linejoin="round"/>
<path d="M19.7734 12.2267L25.4268 6.57336" stroke="#FF4E8A" stroke-width="2" stroke-linecap="round" stroke-linejoin="round"/>
<path d="M19.7734 19.7733L25.4268 25.4266" stroke="#FF4E8A" stroke-width="2" stroke-linecap="round" stroke-linejoin="round"/>
<path d="M12.2266 19.7733L6.57324 25.4266" stroke="#FF4E8A" stroke-width="2" stroke-linecap="round" stroke-linejoin="round"/>
<path d="M15.9998 21.3333C18.9454 21.3333 21.3332 18.9455 21.3332 16C21.3332 13.0544 18.9454 10.6666 15.9998 10.6666C13.0543 10.6666 10.6665 13.0544 10.6665 16C10.6665 18.9455 13.0543 21.3333 15.9998 21.3333Z" stroke="#FF4E8A" stroke-width="2" stroke-linecap="round" stroke-linejoin="round"/>
</svg>
