<svg width="20" height="20" viewBox="0 0 20 20" fill="none" xmlns="http://www.w3.org/2000/svg">
<g clip-path="url(#clip0_634_510)">
<mask id="mask0_634_510" style="mask-type:luminance" maskUnits="userSpaceOnUse" x="0" y="0" width="20" height="20">
<path d="M0.414062 0.414551H19.584V19.5845H0.414062V0.414551Z" fill="white"/>
</mask>
<g mask="url(#mask0_634_510)">
<path d="M3.28953 0.414551H16.7085C16.7556 0.414551 16.8026 0.415697 16.8496 0.417988C16.8966 0.42028 16.9435 0.42377 16.9904 0.428353C17.0372 0.432988 17.0839 0.43877 17.1305 0.445645C17.177 0.452572 17.2234 0.460592 17.2695 0.469759C17.3157 0.478978 17.3616 0.48929 17.4072 0.500697C17.4529 0.512155 17.4982 0.524707 17.5432 0.538353C17.5883 0.551999 17.633 0.566738 17.6772 0.582624C17.7216 0.598457 17.7655 0.615384 17.809 0.633405C17.8524 0.651426 17.8954 0.670488 17.938 0.690592C17.9805 0.710749 18.0226 0.731894 18.064 0.754082C18.1055 0.776269 18.1465 0.799447 18.1868 0.823613C18.2272 0.847832 18.2669 0.872988 18.3061 0.899134C18.3452 0.92528 18.3836 0.952363 18.4215 0.980384C18.4593 1.00846 18.4964 1.03736 18.5327 1.06726C18.5691 1.0971 18.6047 1.12783 18.6396 1.15945C18.6745 1.19101 18.7085 1.22346 18.7418 1.25674C18.7751 1.29002 18.8076 1.32408 18.8391 1.35898C18.8707 1.39382 18.9015 1.42945 18.9313 1.46585C18.9612 1.50221 18.9901 1.53929 19.0182 1.5771C19.0462 1.61492 19.0733 1.65335 19.0994 1.69247C19.1256 1.73163 19.1507 1.77137 19.1749 1.81174C19.1991 1.8521 19.2223 1.89304 19.2445 1.93455C19.2667 1.97601 19.2878 2.01804 19.308 2.06059C19.3281 2.10314 19.3471 2.14617 19.3652 2.1896C19.3832 2.23309 19.4001 2.277 19.4159 2.32132C19.4318 2.36559 19.4466 2.41028 19.4602 2.45533C19.4739 2.50033 19.4864 2.5457 19.4979 2.59132C19.5093 2.637 19.5196 2.68288 19.5288 2.72903C19.538 2.77518 19.546 2.82153 19.5529 2.86809C19.5598 2.91465 19.5656 2.96132 19.5702 3.0082C19.5748 3.05502 19.5783 3.10195 19.5806 3.14893C19.5829 3.19596 19.584 3.24299 19.584 3.29002V16.709C19.584 16.7561 19.5829 16.8031 19.5806 16.8501C19.5783 16.8971 19.5748 16.944 19.5702 16.9909C19.5656 17.0377 19.5598 17.0844 19.5529 17.131C19.546 17.1775 19.538 17.2239 19.5288 17.27C19.5196 17.3162 19.5093 17.362 19.4979 17.4077C19.4864 17.4534 19.4739 17.4987 19.4602 17.5437C19.4466 17.5888 19.4318 17.6335 19.4159 17.6777C19.4001 17.722 19.3832 17.766 19.3652 17.8094C19.3471 17.8529 19.3281 17.8959 19.308 17.9385C19.2878 17.981 19.2667 18.023 19.2445 18.0645C19.2223 18.106 19.1991 18.1469 19.1749 18.1873C19.1507 18.2277 19.1256 18.2674 19.0994 18.3066C19.0733 18.3457 19.0462 18.3841 19.0182 18.4219C18.9901 18.4598 18.9612 18.4968 18.9313 18.5332C18.9015 18.5696 18.8707 18.6052 18.8391 18.6401C18.8076 18.675 18.7751 18.709 18.7418 18.7423C18.7085 18.7756 18.6745 18.808 18.6396 18.8396C18.6047 18.8712 18.5691 18.9019 18.5327 18.9318C18.4964 18.9617 18.4593 18.9906 18.4215 19.0187C18.3836 19.0467 18.3452 19.0738 18.3061 19.0999C18.2669 19.1261 18.2272 19.1512 18.1868 19.1754C18.1465 19.1996 18.1055 19.2228 18.064 19.245C18.0226 19.2672 17.9805 19.2883 17.938 19.3085C17.8954 19.3286 17.8524 19.3476 17.809 19.3656C17.7655 19.3837 17.7216 19.4006 17.6772 19.4164C17.633 19.4323 17.5883 19.447 17.5432 19.4607C17.4982 19.4743 17.4529 19.4869 17.4072 19.4984C17.3616 19.5098 17.3157 19.5201 17.2695 19.5293C17.2234 19.5385 17.177 19.5465 17.1305 19.5534C17.0839 19.5603 17.0372 19.5661 16.9904 19.5707C16.9435 19.5753 16.8966 19.5788 16.8496 19.5811C16.8026 19.5834 16.7556 19.5845 16.7085 19.5845H3.28953C3.2425 19.5845 3.19547 19.5834 3.14844 19.5811C3.10146 19.5788 3.05453 19.5753 3.00771 19.5707C2.96083 19.5661 2.91417 19.5603 2.8676 19.5534C2.82104 19.5465 2.77469 19.5385 2.72854 19.5293C2.6824 19.5201 2.63651 19.5098 2.59083 19.4984C2.54521 19.4869 2.49984 19.4743 2.45484 19.4607C2.40979 19.447 2.3651 19.4323 2.32083 19.4164C2.27651 19.4006 2.2326 19.3837 2.18911 19.3656C2.14568 19.3476 2.10266 19.3286 2.0601 19.3085C2.01755 19.2883 1.97552 19.2672 1.93401 19.245C1.89255 19.2228 1.85161 19.1996 1.81125 19.1754C1.77089 19.1512 1.73115 19.1261 1.69198 19.0999C1.65286 19.0738 1.61443 19.0467 1.57661 19.0187C1.5388 18.9906 1.50172 18.9617 1.46531 18.9318C1.42896 18.9019 1.39333 18.8712 1.35849 18.8396C1.32359 18.808 1.28953 18.7756 1.25625 18.7423C1.22297 18.709 1.19052 18.675 1.15891 18.6401C1.12734 18.6052 1.09661 18.5696 1.06677 18.5332C1.03688 18.4968 1.00797 18.4598 0.979896 18.4219C0.951875 18.3841 0.924792 18.3457 0.898646 18.3066C0.8725 18.2674 0.847344 18.2277 0.823125 18.1873C0.798958 18.1469 0.775781 18.106 0.753594 18.0645C0.731406 18.023 0.71026 17.981 0.690104 17.9385C0.67 17.8959 0.650938 17.8529 0.632917 17.8094C0.614896 17.766 0.597969 17.722 0.582135 17.6777C0.56625 17.6335 0.55151 17.5888 0.537865 17.5437C0.524219 17.4987 0.511667 17.4534 0.500208 17.4077C0.488802 17.362 0.47849 17.3162 0.469271 17.27C0.460104 17.2239 0.452083 17.1775 0.445156 17.131C0.438229 17.0844 0.4325 17.0377 0.427865 16.9909C0.423281 16.944 0.419792 16.8971 0.4175 16.8501C0.415208 16.8031 0.414062 16.7561 0.414062 16.709V3.29002C0.414062 3.24299 0.415208 3.19596 0.4175 3.14893C0.419792 3.10195 0.423281 3.05502 0.427865 3.0082C0.4325 2.96132 0.438229 2.91465 0.445156 2.86809C0.452083 2.82153 0.460104 2.77518 0.469271 2.72903C0.47849 2.68288 0.488802 2.637 0.500208 2.59132C0.511667 2.5457 0.524219 2.50033 0.537865 2.45533C0.55151 2.41028 0.56625 2.36559 0.582135 2.32132C0.597969 2.277 0.614896 2.23309 0.632917 2.1896C0.650938 2.14617 0.67 2.10314 0.690104 2.06059C0.71026 2.01804 0.731406 1.97601 0.753594 1.93455C0.775781 1.89304 0.798958 1.8521 0.823125 1.81174C0.847344 1.77137 0.8725 1.73163 0.898646 1.69247C0.924792 1.65335 0.951875 1.61492 0.979896 1.5771C1.00797 1.53929 1.03688 1.50221 1.06677 1.46585C1.09661 1.42945 1.12734 1.39382 1.15891 1.35898C1.19052 1.32408 1.22297 1.29002 1.25625 1.25674C1.28953 1.22346 1.32359 1.19101 1.35849 1.15945C1.39333 1.12783 1.42896 1.0971 1.46531 1.06726C1.50172 1.03736 1.5388 1.00846 1.57661 0.980384C1.61443 0.952363 1.65286 0.92528 1.69198 0.899134C1.73115 0.872988 1.77089 0.847832 1.81125 0.823613C1.85161 0.799447 1.89255 0.776269 1.93401 0.754082C1.97552 0.731894 2.01755 0.710749 2.0601 0.690592C2.10266 0.670488 2.14568 0.651426 2.18911 0.633405C2.2326 0.615384 2.27651 0.598457 2.32083 0.582624C2.3651 0.566738 2.40979 0.551999 2.45484 0.538353C2.49984 0.524707 2.54521 0.512155 2.59083 0.500697C2.63651 0.48929 2.6824 0.478978 2.72854 0.469759C2.77469 0.460592 2.82104 0.452572 2.8676 0.445645C2.91417 0.43877 2.96083 0.432988 3.00771 0.428353C3.05453 0.42377 3.10146 0.42028 3.14844 0.417988C3.19547 0.415697 3.2425 0.414551 3.28953 0.414551Z" fill="white"/>
</g>
<path d="M14.867 15.3911C16.5519 13.8186 17.3007 11.1977 16.8514 8.68909H10.1494V11.4598H13.9684C13.8187 12.3584 13.2945 13.1072 12.5457 13.5939L14.867 15.3911Z" fill="#4285F4"/>
<path d="M3.78418 13.182C3.84553 13.3028 3.91022 13.4218 3.97824 13.5389C4.04632 13.6561 4.11762 13.7712 4.19215 13.8843C4.26673 13.9974 4.34439 14.1083 4.42522 14.217C4.50605 14.3258 4.58986 14.4321 4.67673 14.5361C4.76355 14.6401 4.85324 14.7415 4.94585 14.8404C5.0384 14.9393 5.13371 15.0355 5.23173 15.1291C5.32975 15.2226 5.43033 15.3132 5.53345 15.4011C5.63658 15.4889 5.7421 15.5738 5.85006 15.6556C5.95798 15.7375 6.06814 15.8163 6.18053 15.8919C6.29293 15.9675 6.40736 16.0399 6.52387 16.1091C6.64033 16.1782 6.75866 16.2441 6.87887 16.3066C6.99908 16.369 7.12095 16.4281 7.24449 16.4837C7.36803 16.5392 7.49303 16.5913 7.61954 16.6398C7.746 16.6883 7.87376 16.7332 8.00277 16.7745C8.13178 16.8158 8.26189 16.8535 8.39303 16.8874C8.52418 16.9214 8.65616 16.9516 8.78902 16.9781C8.92189 17.0045 9.05538 17.0273 9.18954 17.0462C9.32366 17.0651 9.45824 17.0803 9.59324 17.0916C9.72824 17.1029 9.86345 17.1104 9.99887 17.1141C10.1343 17.1178 10.2697 17.1176 10.4051 17.1137C10.5405 17.1097 10.6757 17.1019 10.8107 17.0903C10.9456 17.0787 11.0802 17.0632 11.2143 17.044C11.3484 17.0248 11.4818 17.0018 11.6146 16.975C11.7475 16.9482 11.8794 16.9178 12.0104 16.8836C12.1415 16.8493 12.2715 16.8114 12.4005 16.7699C12.5294 16.7283 12.657 16.6831 12.7835 16.6343C12.9098 16.5855 13.0347 16.5332 13.1581 16.4773C13.2816 16.4215 13.4033 16.3622 13.5233 16.2994C13.6434 16.2367 13.7616 16.1706 13.878 16.1012C13.9943 16.0318 14.1086 15.9591 14.2208 15.8833C14.333 15.8074 14.443 15.7284 14.5508 15.6463C14.6586 15.5642 14.7639 15.4791 14.8668 15.3911L12.5455 13.5939C10.5611 14.9043 7.26626 14.4176 6.14298 11.3474L3.78418 13.182Z" fill="#34A853"/>
<path d="M6.14327 11.3474C5.84374 10.4114 5.84374 9.55022 6.14327 8.61418L3.78447 6.77954C2.92332 8.50188 2.66124 10.9355 3.78447 13.182L6.14327 11.3474Z" fill="#FBBC02"/>
<path d="M6.14298 8.61416C6.96673 6.03073 10.4862 4.53307 12.845 6.74208L14.9043 4.72026C11.9839 1.91219 6.29277 2.02448 3.78418 6.77953L6.14298 8.61416Z" fill="#EA4335"/>
</g>
<defs>
<clipPath id="clip0_634_510">
<rect width="20" height="20" fill="white"/>
</clipPath>
</defs>
</svg>
