<svg width="40" height="40" viewBox="0 0 40 40" fill="none" xmlns="http://www.w3.org/2000/svg">
<path d="M20 16.6667H20.0167" stroke="#1A1A1A" stroke-width="1.5" stroke-linecap="round" stroke-linejoin="round"/>
<path d="M20 23.3333H20.0167" stroke="#1A1A1A" stroke-width="1.5" stroke-linecap="round" stroke-linejoin="round"/>
<path d="M20 10H20.0167" stroke="#1A1A1A" stroke-width="1.5" stroke-linecap="round" stroke-linejoin="round"/>
<path d="M26.6665 16.6667H26.6832" stroke="#1A1A1A" stroke-width="1.5" stroke-linecap="round" stroke-linejoin="round"/>
<path d="M26.6665 23.3333H26.6832" stroke="#1A1A1A" stroke-width="1.5" stroke-linecap="round" stroke-linejoin="round"/>
<path d="M26.6665 10H26.6832" stroke="#1A1A1A" stroke-width="1.5" stroke-linecap="round" stroke-linejoin="round"/>
<path d="M13.3335 16.6667H13.3502" stroke="#1A1A1A" stroke-width="1.5" stroke-linecap="round" stroke-linejoin="round"/>
<path d="M13.3335 23.3333H13.3502" stroke="#1A1A1A" stroke-width="1.5" stroke-linecap="round" stroke-linejoin="round"/>
<path d="M13.3335 10H13.3502" stroke="#1A1A1A" stroke-width="1.5" stroke-linecap="round" stroke-linejoin="round"/>
<path d="M15 36.6667V31.6667C15 31.2246 15.1756 30.8007 15.4882 30.4882C15.8007 30.1756 16.2246 30 16.6667 30H23.3333C23.7754 30 24.1993 30.1756 24.5118 30.4882C24.8244 30.8007 25 31.2246 25 31.6667V36.6667" stroke="#1A1A1A" stroke-width="1.5" stroke-linecap="round" stroke-linejoin="round"/>
<path d="M29.9998 3.33334H9.99984C8.15889 3.33334 6.6665 4.82573 6.6665 6.66668V33.3333C6.6665 35.1743 8.15889 36.6667 9.99984 36.6667H29.9998C31.8408 36.6667 33.3332 35.1743 33.3332 33.3333V6.66668C33.3332 4.82573 31.8408 3.33334 29.9998 3.33334Z" stroke="#1A1A1A" stroke-width="1.5" stroke-linecap="round" stroke-linejoin="round"/>
</svg>
