<svg width="213" height="65" viewBox="0 0 213 65" fill="none" xmlns="http://www.w3.org/2000/svg">
<g clip-path="url(#clip0_11_196)">
<rect width="213" height="65" fill="#FFCEE5"/>
<g filter="url(#filter0_d_11_196)">
<path d="M40 5C29 5 20 14 20 25C20 42 40 60 40 60C40 60 60 42 60 25C60 14 51 5 40 5Z" fill="#FF5B8C"/>
</g>
<path d="M34 27V21H46V27" stroke="#FFCEE5" stroke-width="3" stroke-linecap="round"/>
<path d="M30 27L40 19L50 27" stroke="#FFCEE5" stroke-width="3" stroke-linecap="round"/>
<g filter="url(#filter1_d_11_196)">
<path d="M106.536 43.724C105.064 43.724 103.741 43.468 102.568 42.956C101.416 42.4227 100.509 41.6973 99.848 40.78C99.1867 39.8413 98.8453 38.764 98.824 37.548H101.928C102.035 38.5933 102.461 39.4787 103.208 40.204C103.976 40.908 105.085 41.26 106.536 41.26C107.923 41.26 109.011 40.9187 109.8 40.236C110.611 39.532 111.016 38.636 111.016 37.548C111.016 36.6947 110.781 36.0013 110.312 35.468C109.843 34.9347 109.256 34.5293 108.552 34.252C107.848 33.9747 106.899 33.676 105.704 33.356C104.232 32.972 103.048 32.588 102.152 32.204C101.277 31.82 100.52 31.2227 99.88 30.412C99.2613 29.58 98.952 28.4707 98.952 27.084C98.952 25.868 99.2613 24.7907 99.88 23.852C100.499 22.9133 101.363 22.188 102.472 21.676C103.603 21.164 104.893 20.908 106.344 20.908C108.435 20.908 110.141 21.4307 111.464 22.476C112.808 23.5213 113.565 24.908 113.736 26.636H110.536C110.429 25.7827 109.981 25.036 109.192 24.396C108.403 23.7347 107.357 23.404 106.056 23.404C104.84 23.404 103.848 23.724 103.08 24.364C102.312 24.9827 101.928 25.8573 101.928 26.988C101.928 27.7987 102.152 28.46 102.6 28.972C103.069 29.484 103.635 29.8787 104.296 30.156C104.979 30.412 105.928 30.7107 107.144 31.052C108.616 31.4573 109.8 31.8627 110.696 32.268C111.592 32.652 112.36 33.26 113 34.092C113.64 34.9027 113.96 36.012 113.96 37.42C113.96 38.508 113.672 39.532 113.096 40.492C112.52 41.452 111.667 42.2307 110.536 42.828C109.405 43.4253 108.072 43.724 106.536 43.724ZM121.797 28.364V38.7C121.797 39.5533 121.979 40.1613 122.341 40.524C122.704 40.8653 123.333 41.036 124.229 41.036H126.373V43.5H123.749C122.128 43.5 120.912 43.1267 120.101 42.38C119.291 41.6333 118.885 40.4067 118.885 38.7V28.364H116.613V25.964H118.885V21.548H121.797V25.964H126.373V28.364H121.797ZM128.814 34.668C128.814 32.876 129.176 31.308 129.902 29.964C130.627 28.5987 131.619 27.5427 132.878 26.796C134.158 26.0493 135.576 25.676 137.134 25.676C138.67 25.676 140.003 26.0067 141.134 26.668C142.264 27.3293 143.107 28.1613 143.662 29.164V25.964H146.606V43.5H143.662V40.236C143.086 41.26 142.222 42.1133 141.07 42.796C139.939 43.4573 138.616 43.788 137.102 43.788C135.544 43.788 134.136 43.404 132.878 42.636C131.619 41.868 130.627 40.7907 129.902 39.404C129.176 38.0173 128.814 36.4387 128.814 34.668ZM143.662 34.7C143.662 33.3773 143.395 32.2253 142.862 31.244C142.328 30.2627 141.603 29.516 140.686 29.004C139.79 28.4707 138.798 28.204 137.71 28.204C136.622 28.204 135.63 28.46 134.734 28.972C133.838 29.484 133.123 30.2307 132.59 31.212C132.056 32.1933 131.79 33.3453 131.79 34.668C131.79 36.012 132.056 37.1853 132.59 38.188C133.123 39.1693 133.838 39.9267 134.734 40.46C135.63 40.972 136.622 41.228 137.71 41.228C138.798 41.228 139.79 40.972 140.686 40.46C141.603 39.9267 142.328 39.1693 142.862 38.188C143.395 37.1853 143.662 36.0227 143.662 34.7ZM166.631 25.964L156.071 51.756H153.062L156.519 43.308L149.447 25.964H152.679L158.183 40.172L163.623 25.964H166.631ZM172.47 19.82V43.5H169.558V19.82H172.47ZM192.537 25.964L181.977 51.756H178.969L182.425 43.308L175.353 25.964H178.585L184.089 40.172L189.529 25.964H192.537Z" fill="#FF5B8C"/>
</g>
</g>
<defs>
<filter id="filter0_d_11_196" x="16" y="5" width="48" height="63" filterUnits="userSpaceOnUse" color-interpolation-filters="sRGB">
<feFlood flood-opacity="0" result="BackgroundImageFix"/>
<feColorMatrix in="SourceAlpha" type="matrix" values="0 0 0 0 0 0 0 0 0 0 0 0 0 0 0 0 0 0 127 0" result="hardAlpha"/>
<feOffset dy="4"/>
<feGaussianBlur stdDeviation="2"/>
<feComposite in2="hardAlpha" operator="out"/>
<feColorMatrix type="matrix" values="0 0 0 0 0 0 0 0 0 0 0 0 0 0 0 0 0 0 0.25 0"/>
<feBlend mode="normal" in2="BackgroundImageFix" result="effect1_dropShadow_11_196"/>
<feBlend mode="normal" in="SourceGraphic" in2="effect1_dropShadow_11_196" result="shape"/>
</filter>
<filter id="filter1_d_11_196" x="94.8242" y="19.8201" width="101.712" height="39.936" filterUnits="userSpaceOnUse" color-interpolation-filters="sRGB">
<feFlood flood-opacity="0" result="BackgroundImageFix"/>
<feColorMatrix in="SourceAlpha" type="matrix" values="0 0 0 0 0 0 0 0 0 0 0 0 0 0 0 0 0 0 127 0" result="hardAlpha"/>
<feOffset dy="4"/>
<feGaussianBlur stdDeviation="2"/>
<feComposite in2="hardAlpha" operator="out"/>
<feColorMatrix type="matrix" values="0 0 0 0 0 0 0 0 0 0 0 0 0 0 0 0 0 0 0.25 0"/>
<feBlend mode="normal" in2="BackgroundImageFix" result="effect1_dropShadow_11_196"/>
<feBlend mode="normal" in="SourceGraphic" in2="effect1_dropShadow_11_196" result="shape"/>
</filter>
<clipPath id="clip0_11_196">
<rect width="213" height="65" fill="white"/>
</clipPath>
</defs>
</svg>
