<svg width="23" height="22" viewBox="0 0 23 22" fill="none" xmlns="http://www.w3.org/2000/svg">
<path fill-rule="evenodd" clip-rule="evenodd" d="M1.04785 2.74999C1.04785 1.80906 1.80675 1.04999 2.73833 1.04999C3.66991 1.04999 4.4288 1.80906 4.4288 2.74999C4.4288 3.69092 3.66991 4.44999 2.73833 4.44999C1.80675 4.44999 1.04785 3.69092 1.04785 2.74999ZM2.73833 0.0499878C1.25038 0.0499878 0.0478516 1.26087 0.0478516 2.74999C0.0478516 4.23911 1.25038 5.44999 2.73833 5.44999C4.22628 5.44999 5.4288 4.23911 5.4288 2.74999C5.4288 1.26087 4.22628 0.0499878 2.73833 0.0499878ZM15.8812 7.64999C14.2716 7.64999 12.7276 8.29214 11.5888 9.43587C10.4499 10.5797 9.80976 12.1315 9.80976 13.75V20.95H13.1907V13.75C13.1907 13.0346 13.4736 12.3481 13.978 11.8416C14.4824 11.335 15.1669 11.05 15.8812 11.05C16.5954 11.05 17.28 11.335 17.7844 11.8416C18.2887 12.3481 18.5717 13.0346 18.5717 13.75V20.95H21.9526V13.75C21.9526 12.1315 21.3124 10.5797 20.1736 9.43587C19.0348 8.29214 17.4907 7.64999 15.8812 7.64999ZM15.8812 6.64999C14.005 6.64999 12.2061 7.39855 10.8802 8.7303C9.55426 10.062 8.80976 11.8676 8.80976 13.75V21.45C8.80976 21.7261 9.03361 21.95 9.30976 21.95H13.6907C13.9669 21.95 14.1907 21.7261 14.1907 21.45V13.75C14.1907 13.2984 14.3693 12.8658 14.6866 12.5471C15.0038 12.2286 15.4335 12.05 15.8812 12.05C16.3288 12.05 16.7586 12.2286 17.0758 12.5471C17.393 12.8658 17.5717 13.2984 17.5717 13.75V21.45C17.5717 21.7261 17.7955 21.95 18.0717 21.95H22.4526C22.7288 21.95 22.9526 21.7261 22.9526 21.45V13.75C22.9526 11.8676 22.2081 10.062 20.8822 8.7303C19.5562 7.39855 17.7573 6.64999 15.8812 6.64999ZM0.0478516 8.24999C0.0478516 7.97385 0.271709 7.74999 0.547852 7.74999H4.9288C5.20495 7.74999 5.4288 7.97385 5.4288 8.24999V21.45C5.4288 21.7261 5.20495 21.95 4.9288 21.95H0.547852C0.271709 21.95 0.0478516 21.7261 0.0478516 21.45V8.24999ZM1.04785 8.74999V20.95H4.4288V8.74999H1.04785Z" fill="white"/>
</svg>
