<svg width="50" height="68" viewBox="0 0 50 68" fill="none" xmlns="http://www.w3.org/2000/svg">
<path d="M24.5381 0.5C37.7574 0.5 48.5771 11.3326 48.5771 24.5713C48.5771 34.8422 42.5302 45.48 36.4082 53.6025C33.3558 57.6524 30.3024 61.0541 28.0117 63.4434C26.8667 64.6377 25.9128 65.5784 25.2461 66.2197C24.9516 66.503 24.7122 66.7271 24.5381 66.8896C24.364 66.7272 24.1253 66.5028 23.8311 66.2197C23.1644 65.5784 22.2105 64.6377 21.0654 63.4434C18.7748 61.0541 15.7213 57.6524 12.6689 53.6025C6.54698 45.48 0.5 34.8422 0.5 24.5713C0.500072 11.3327 11.3189 0.500215 24.5381 0.5Z" fill="#FF5B8C" stroke="#FAF7F2"/>
<path d="M17.177 27.2429V19.8715H31.9001V27.2429" stroke="#FAF7F2" stroke-width="3" stroke-linecap="round"/>
<path d="M12.2693 27.2429L24.5385 17.4143L36.8078 27.2429" stroke="#FAF7F2" stroke-width="3" stroke-linecap="round"/>
</svg>
