<svg width="192" height="68" viewBox="0 0 192 68" fill="none" xmlns="http://www.w3.org/2000/svg">
<g clip-path="url(#clip0_153_260)">
<rect width="191.857" height="67.5714" fill="white"/>
<path d="M24.5385 0C11.0423 0 0 11.0571 0 24.5714C0 45.4571 24.5385 67.5714 24.5385 67.5714C24.5385 67.5714 49.077 45.4571 49.077 24.5714C49.077 11.0571 38.0346 0 24.5385 0Z" fill="#FF5B8C"/>
<path d="M17.1768 27.2429V19.8715H31.8998V27.2429" stroke="white" stroke-width="3" stroke-linecap="round"/>
<path d="M12.2695 27.2429L24.5388 17.4143L36.808 27.2429" stroke="white" stroke-width="3" stroke-linecap="round"/>
<path d="M98.5031 41.5278C97.0311 41.5278 95.7085 41.2718 94.5351 40.7598C93.3831 40.2265 92.4765 39.5012 91.8151 38.5838C91.1538 37.6452 90.8125 36.5678 90.7911 35.3518H93.8951C94.0018 36.3972 94.4285 37.2825 95.1751 38.0078C95.9431 38.7118 97.0525 39.0638 98.5031 39.0638C99.8898 39.0638 100.978 38.7225 101.767 38.0398C102.578 37.3358 102.983 36.4398 102.983 35.3518C102.983 34.4985 102.748 33.8052 102.279 33.2718C101.81 32.7385 101.223 32.3332 100.519 32.0558C99.8151 31.7785 98.8658 31.4798 97.6711 31.1598C96.1991 30.7758 95.0151 30.3918 94.1191 30.0078C93.2445 29.6238 92.4871 29.0265 91.8471 28.2158C91.2285 27.3838 90.9191 26.2745 90.9191 24.8878C90.9191 23.6718 91.2285 22.5945 91.8471 21.6558C92.4658 20.7172 93.3298 19.9918 94.4391 19.4798C95.5698 18.9678 96.8605 18.7118 98.3111 18.7118C100.402 18.7118 102.108 19.2345 103.431 20.2798C104.775 21.3252 105.532 22.7118 105.703 24.4398H102.503C102.396 23.5865 101.948 22.8398 101.159 22.1998C100.37 21.5385 99.3245 21.2078 98.0231 21.2078C96.8071 21.2078 95.8151 21.5278 95.0471 22.1678C94.2791 22.7865 93.8951 23.6612 93.8951 24.7918C93.8951 25.6025 94.1191 26.2638 94.5671 26.7758C95.0365 27.2878 95.6018 27.6825 96.2631 27.9598C96.9458 28.2158 97.8951 28.5145 99.1111 28.8558C100.583 29.2612 101.767 29.6665 102.663 30.0718C103.559 30.4558 104.327 31.0638 104.967 31.8958C105.607 32.7065 105.927 33.8158 105.927 35.2238C105.927 36.3118 105.639 37.3358 105.063 38.2958C104.487 39.2558 103.634 40.0345 102.503 40.6318C101.372 41.2292 100.039 41.5278 98.5031 41.5278ZM113.764 26.1678V36.5038C113.764 37.3572 113.946 37.9652 114.308 38.3278C114.671 38.6692 115.3 38.8398 116.196 38.8398H118.34V41.3038H115.716C114.095 41.3038 112.879 40.9305 112.068 40.1838C111.258 39.4372 110.852 38.2105 110.852 36.5038V26.1678H108.58V23.7678H110.852V19.3518H113.764V23.7678H118.34V26.1678H113.764ZM120.781 32.4718C120.781 30.6798 121.143 29.1118 121.869 27.7678C122.594 26.4025 123.586 25.3465 124.845 24.5998C126.125 23.8532 127.543 23.4798 129.101 23.4798C130.637 23.4798 131.97 23.8105 133.101 24.4718C134.231 25.1332 135.074 25.9652 135.629 26.9678V23.7678H138.573V41.3038H135.629V38.0398C135.053 39.0638 134.189 39.9172 133.037 40.5998C131.906 41.2612 130.583 41.5918 129.069 41.5918C127.511 41.5918 126.103 41.2078 124.845 40.4398C123.586 39.6718 122.594 38.5945 121.869 37.2078C121.143 35.8212 120.781 34.2425 120.781 32.4718ZM135.629 32.5038C135.629 31.1812 135.362 30.0292 134.829 29.0478C134.295 28.0665 133.57 27.3198 132.653 26.8078C131.757 26.2745 130.765 26.0078 129.677 26.0078C128.589 26.0078 127.597 26.2638 126.701 26.7758C125.805 27.2878 125.09 28.0345 124.557 29.0158C124.023 29.9972 123.757 31.1492 123.757 32.4718C123.757 33.8158 124.023 34.9892 124.557 35.9918C125.09 36.9732 125.805 37.7305 126.701 38.2638C127.597 38.7758 128.589 39.0318 129.677 39.0318C130.765 39.0318 131.757 38.7758 132.653 38.2638C133.57 37.7305 134.295 36.9732 134.829 35.9918C135.362 34.9892 135.629 33.8265 135.629 32.5038ZM158.598 23.7678L148.038 49.5598H145.03L148.486 41.1118L141.414 23.7678H144.646L150.15 37.9758L155.59 23.7678H158.598ZM164.437 17.6238V41.3038H161.525V17.6238H164.437ZM184.504 23.7678L173.944 49.5598H170.936L174.392 41.1118L167.32 23.7678H170.552L176.056 37.9758L181.496 23.7678H184.504Z" fill="#FF5B8C"/>
</g>
<defs>
<clipPath id="clip0_153_260">
<rect width="191.857" height="67.5714" fill="white"/>
</clipPath>
</defs>
</svg>
