<svg width="16" height="16" viewBox="0 0 16 16" fill="none" xmlns="http://www.w3.org/2000/svg">
<g clip-path="url(#clip0_358_1890)">
<path d="M14.1999 10.2C14.349 10.3486 14.4674 10.5253 14.5481 10.7197C14.6289 10.9142 14.6705 11.1227 14.6705 11.3333C14.6705 11.5439 14.6289 11.7524 14.5481 11.9469C14.4674 12.1414 14.349 12.318 14.1999 12.4667L12.4665 14.2C12.3179 14.3492 12.1413 14.4675 11.9468 14.5483C11.7523 14.629 11.5438 14.6706 11.3332 14.6706C11.1226 14.6706 10.9141 14.629 10.7196 14.5483C10.5251 14.4675 10.3485 14.3492 10.1999 14.2L1.79987 5.79999C1.50024 5.49891 1.33203 5.09142 1.33203 4.66666C1.33203 4.24189 1.50024 3.83441 1.79987 3.53332L3.5332 1.79999C3.83428 1.50036 4.24177 1.33215 4.66653 1.33215C5.0913 1.33215 5.49879 1.50036 5.79987 1.79999L14.1999 10.2Z" stroke="#3A3A3A" stroke-linecap="round" stroke-linejoin="round"/>
<path d="M9.6665 8.33333L10.9998 7" stroke="#3A3A3A" stroke-linecap="round" stroke-linejoin="round"/>
<path d="M7.6665 6.33333L8.99984 5" stroke="#3A3A3A" stroke-linecap="round" stroke-linejoin="round"/>
<path d="M5.6665 4.33333L6.99984 3" stroke="#3A3A3A" stroke-linecap="round" stroke-linejoin="round"/>
<path d="M11.6665 10.3333L12.9998 9" stroke="#3A3A3A" stroke-linecap="round" stroke-linejoin="round"/>
</g>
<defs>
<clipPath id="clip0_358_1890">
<rect width="16" height="16" fill="white"/>
</clipPath>
</defs>
</svg>
