<svg width="20" height="20" viewBox="0 0 20 20" fill="none" xmlns="http://www.w3.org/2000/svg">
<path d="M8.05893 3.44666C8.10485 2.96361 8.32921 2.51503 8.68818 2.18856C9.04716 1.86209 9.51495 1.68118 10.0002 1.68118C10.4854 1.68118 10.9532 1.86209 11.3122 2.18856C11.6712 2.51503 11.8955 2.96361 11.9414 3.44666C11.969 3.75871 12.0714 4.05951 12.2399 4.32361C12.4084 4.58771 12.638 4.80733 12.9093 4.96389C13.1807 5.12045 13.4857 5.20933 13.7987 5.22301C14.1116 5.23669 14.4233 5.17477 14.7073 5.04249C15.1482 4.84231 15.6478 4.81334 16.1089 4.96123C16.57 5.10912 16.9596 5.42329 17.2019 5.84258C17.4441 6.26188 17.5217 6.7563 17.4195 7.22964C17.3173 7.70297 17.0426 8.12134 16.6489 8.40333C16.3926 8.5832 16.1833 8.82217 16.0389 9.10001C15.8944 9.37786 15.819 9.68642 15.819 9.99958C15.819 10.3127 15.8944 10.6213 16.0389 10.8991C16.1833 11.177 16.3926 11.416 16.6489 11.5958C17.0426 11.8778 17.3173 12.2962 17.4195 12.7695C17.5217 13.2429 17.4441 13.7373 17.2019 14.1566C16.9596 14.5759 16.57 14.89 16.1089 15.0379C15.6478 15.1858 15.1482 15.1568 14.7073 14.9567C14.4233 14.8244 14.1116 14.7625 13.7987 14.7761C13.4857 14.7898 13.1807 14.8787 12.9093 15.0353C12.638 15.1918 12.4084 15.4114 12.2399 15.6755C12.0714 15.9396 11.969 16.2404 11.9414 16.5525C11.8955 17.0355 11.6712 17.4841 11.3122 17.8106C10.9532 18.1371 10.4854 18.318 10.0002 18.318C9.51495 18.318 9.04716 18.1371 8.68818 17.8106C8.32921 17.4841 8.10485 17.0355 8.05893 16.5525C8.03138 16.2403 7.92901 15.9394 7.76049 15.6752C7.59196 15.411 7.36224 15.1913 7.09079 15.0348C6.81934 14.8782 6.51416 14.7893 6.20108 14.7757C5.88801 14.7621 5.57627 14.8242 5.29227 14.9567C4.85134 15.1568 4.3517 15.1858 3.8906 15.0379C3.42949 14.89 3.03991 14.5759 2.79767 14.1566C2.55543 13.7373 2.47786 13.2429 2.58007 12.7695C2.68227 12.2962 2.95693 11.8778 3.3506 11.5958C3.60695 11.416 3.81621 11.177 3.96067 10.8991C4.10514 10.6213 4.18056 10.3127 4.18056 9.99958C4.18056 9.68642 4.10514 9.37786 3.96067 9.10001C3.81621 8.82217 3.60695 8.5832 3.3506 8.40333C2.95749 8.1212 2.68331 7.70299 2.58135 7.22998C2.47939 6.75697 2.55694 6.26294 2.79892 5.84392C3.0409 5.4249 3.43003 5.11081 3.89067 4.96269C4.35132 4.81458 4.85059 4.84302 5.29143 5.04249C5.5754 5.17477 5.88705 5.23669 6.20002 5.22301C6.51298 5.20933 6.81804 5.12045 7.08938 4.96389C7.36072 4.80733 7.59034 4.58771 7.75882 4.32361C7.9273 4.05951 8.02967 3.75871 8.05727 3.44666" stroke="#1A1A1A" stroke-width="1.25" stroke-linecap="round" stroke-linejoin="round"/>
<path d="M10 12.5C11.3807 12.5 12.5 11.3807 12.5 10C12.5 8.61929 11.3807 7.5 10 7.5C8.61929 7.5 7.5 8.61929 7.5 10C7.5 11.3807 8.61929 12.5 10 12.5Z" stroke="#1A1A1A" stroke-width="1.25" stroke-linecap="round" stroke-linejoin="round"/>
</svg>
