<svg width="24" height="24" viewBox="0 0 24 24" fill="none" xmlns="http://www.w3.org/2000/svg">
<path d="M16.7406 17C15.6529 17 14.7711 17.8954 14.7711 19C14.7711 20.1046 15.6529 21 16.7406 21C17.8283 21 18.7101 20.1046 18.7101 19C18.7101 17.8954 17.8283 17 16.7406 17ZM16.7406 17H9.15212C8.6981 17 8.47067 17 8.28374 16.918C8.11885 16.8456 7.97579 16.7291 7.87156 16.5805C7.75473 16.414 7.70775 16.1913 7.61474 15.7505L5.19104 4.26465C5.09587 3.81363 5.04765 3.58838 4.92947 3.41992C4.82524 3.27135 4.68221 3.15441 4.51732 3.08205C4.33035 3 4.10419 3 3.64998 3H2.95422M5.90844 6H18.5852C19.296 6 19.651 6 19.8896 6.15036C20.0985 6.28206 20.2515 6.48862 20.3182 6.729C20.3943 7.00343 20.2965 7.34996 20.0995 8.04346L18.736 12.8435C18.6182 13.2581 18.5593 13.465 18.4398 13.6189C18.3344 13.7547 18.1952 13.861 18.0375 13.9263C17.8594 14 17.6476 14 17.2252 14H7.6125M7.87792 21C6.79021 21 5.90844 20.1046 5.90844 19C5.90844 17.8954 6.79021 17 7.87792 17C8.96564 17 9.8474 17.8954 9.8474 19C9.8474 20.1046 8.96564 21 7.87792 21Z" stroke="#FF5B8C" stroke-width="2" stroke-linecap="round" stroke-linejoin="round"/>
</svg>
