<svg width="16" height="16" viewBox="0 0 16 16" fill="none" xmlns="http://www.w3.org/2000/svg">
<path d="M4.66673 8H13.3334C13.5102 8 13.6798 8.07024 13.8048 8.19526C13.9298 8.32029 14.0001 8.48986 14.0001 8.66667C14.0001 9.55072 13.6489 10.3986 13.0238 11.0237C12.3986 11.6488 11.5508 12 10.6667 12H10.2681C10.2086 12 10.1501 12.0159 10.0989 12.0461C10.0476 12.0763 10.0054 12.1197 9.97652 12.1717C9.94767 12.2238 9.93329 12.2826 9.93485 12.3421C9.93641 12.4016 9.95386 12.4595 9.9854 12.51L11.0147 14.1567C11.0463 14.2071 11.0637 14.2651 11.0653 14.3246C11.0668 14.3841 11.0525 14.4429 11.0236 14.4949C10.9948 14.547 10.9525 14.5903 10.9013 14.6205C10.85 14.6507 10.7916 14.6667 10.7321 14.6667H3.6014C3.5419 14.6667 3.48348 14.6507 3.43221 14.6205C3.38095 14.5903 3.3387 14.547 3.30985 14.4949C3.28101 14.4429 3.26662 14.3841 3.26818 14.3246C3.26974 14.2651 3.2872 14.2071 3.31873 14.1567L4.66673 12" stroke="#3A3A3A" stroke-linecap="round" stroke-linejoin="round"/>
<path d="M5.33333 12C4.44928 12 3.60143 11.6488 2.97631 11.0237C2.35119 10.3985 2 9.5507 2 8.66665V2.66665C2 2.31302 2.14048 1.97389 2.39052 1.72384C2.64057 1.47379 2.97971 1.33331 3.33333 1.33331H8.66667C9.02029 1.33331 9.35943 1.47379 9.60948 1.72384C9.85952 1.97389 10 2.31302 10 2.66665V7.99998" stroke="#3A3A3A" stroke-linecap="round" stroke-linejoin="round"/>
</svg>
