<svg width="20" height="20" viewBox="0 0 20 20" fill="none" xmlns="http://www.w3.org/2000/svg">
<path d="M8.3335 9.1665V14.1665" stroke="#1A1A1A" stroke-width="1.5" stroke-linecap="round" stroke-linejoin="round"/>
<path d="M11.6665 9.1665V14.1665" stroke="#1A1A1A" stroke-width="1.5" stroke-linecap="round" stroke-linejoin="round"/>
<path d="M15.8332 5V16.6667C15.8332 17.1087 15.6576 17.5326 15.345 17.8452C15.0325 18.1577 14.6085 18.3333 14.1665 18.3333H5.83317C5.39114 18.3333 4.96722 18.1577 4.65466 17.8452C4.3421 17.5326 4.1665 17.1087 4.1665 16.6667V5" stroke="#1A1A1A" stroke-width="1.5" stroke-linecap="round" stroke-linejoin="round"/>
<path d="M2.5 5H17.5" stroke="#1A1A1A" stroke-width="1.5" stroke-linecap="round" stroke-linejoin="round"/>
<path d="M6.6665 4.99984V3.33317C6.6665 2.89114 6.8421 2.46722 7.15466 2.15466C7.46722 1.8421 7.89114 1.6665 8.33317 1.6665H11.6665C12.1085 1.6665 12.5325 1.8421 12.845 2.15466C13.1576 2.46722 13.3332 2.89114 13.3332 3.33317V4.99984" stroke="#1A1A1A" stroke-width="1.5" stroke-linecap="round" stroke-linejoin="round"/>
</svg>
