<svg width="48" height="48" viewBox="0 0 48 48" fill="none" xmlns="http://www.w3.org/2000/svg">
<path d="M22 40H4" stroke="#1A1A1A" stroke-width="1.5" stroke-linecap="round" stroke-linejoin="round"/>
<path d="M22 9.124V41.438C22.0001 41.7418 22.0694 42.0416 22.2026 42.3146C22.3358 42.5876 22.5295 42.8267 22.769 43.0137C23.0084 43.2007 23.2873 43.3307 23.5844 43.3938C23.8816 43.4569 24.1892 43.4515 24.484 43.378L38 40V11.124C37.9999 10.232 37.7016 9.36567 37.1526 8.66266C36.6036 7.95965 35.8354 7.4603 34.97 7.244L26.97 5.244C26.3805 5.09665 25.7652 5.08553 25.1707 5.21151C24.5763 5.33748 24.0184 5.59722 23.5393 5.97102C23.0603 6.34483 22.6727 6.82286 22.4059 7.36883C22.1392 7.9148 22.0004 8.51636 22 9.124Z" stroke="#1A1A1A" stroke-width="1.5" stroke-linecap="round" stroke-linejoin="round"/>
<path d="M22 8H16C14.9391 8 13.9217 8.42143 13.1716 9.17157C12.4214 9.92172 12 10.9391 12 12V40" stroke="#1A1A1A" stroke-width="1.5" stroke-linecap="round" stroke-linejoin="round"/>
<path d="M28 24H28.02" stroke="#1A1A1A" stroke-width="1.5" stroke-linecap="round" stroke-linejoin="round"/>
<path d="M44 40H38" stroke="#1A1A1A" stroke-width="1.5" stroke-linecap="round" stroke-linejoin="round"/>
</svg>
