<svg width="20" height="20" viewBox="0 0 20 20" fill="none" xmlns="http://www.w3.org/2000/svg">
<path d="M1.6665 7.91666C1.66652 6.98933 1.94783 6.08382 2.47328 5.31972C2.99873 4.55562 3.7436 3.96888 4.60951 3.637C5.47542 3.30511 6.42164 3.2437 7.32318 3.46087C8.22473 3.67803 9.03919 4.16356 9.659 4.85333C9.70266 4.90001 9.75544 4.93722 9.81407 4.96266C9.8727 4.98811 9.93593 5.00123 9.99984 5.00123C10.0637 5.00123 10.127 4.98811 10.1856 4.96266C10.2442 4.93722 10.297 4.90001 10.3407 4.85333C10.9585 4.15908 11.7732 3.66947 12.6762 3.44967C13.5792 3.22986 14.5277 3.29029 15.3956 3.6229C16.2634 3.95551 17.0093 4.54454 17.5341 5.31158C18.0589 6.07862 18.3376 6.9873 18.3332 7.91666C18.3332 9.825 17.0832 11.25 15.8332 12.5L11.2565 16.9275C11.1012 17.1058 10.9098 17.2491 10.6949 17.3477C10.48 17.4464 10.2465 17.4982 10.0101 17.4997C9.77362 17.5012 9.53954 17.4524 9.32341 17.3564C9.10728 17.2605 8.91403 17.1197 8.7565 16.9433L4.1665 12.5C2.9165 11.25 1.6665 9.83333 1.6665 7.91666Z" stroke="#1A1A1A" stroke-width="1.25" stroke-linecap="round" stroke-linejoin="round"/>
</svg>
